<svg version="1.1" id="Layer_1" xmlns="http://www.w3.org/2000/svg" xmlns:xlink="http://www.w3.org/1999/xlink" x="0px" y="0px"
	 width="100%" viewBox="0 0 416 336" enable-background="new 0 0 416 336" xml:space="preserve">
<path fill="#000000" opacity="1.000000" stroke="none" 
	d="
M318.983154,147.700348 
	C321.638702,152.969589 323.962769,157.954620 326.560150,162.792908 
	C328.276855,165.990723 327.957336,168.467453 325.661865,171.380783 
	C320.651764,177.739410 314.724335,183.413818 310.243042,191.084778 
	C319.334869,194.120422 327.488190,198.045654 335.125305,203.108200 
	C337.885284,204.937775 341.309418,202.814499 344.378204,202.474701 
	C369.699127,199.671051 388.973022,209.604752 402.418121,230.604446 
	C426.813110,268.706543 402.974152,321.058746 358.243134,328.541687 
	C346.570740,330.494324 335.385895,329.065338 324.491821,324.833313 
	C322.111603,323.908661 320.226074,324.008179 317.901947,325.032318 
	C279.284912,342.048218 226.106857,320.729401 219.560165,270.587128 
	C215.732330,241.269135 224.928314,217.484161 249.346710,200.256531 
	C256.296875,195.353073 264.401886,192.613663 272.966400,189.907257 
	C269.741913,184.819855 265.481140,181.117889 261.832642,176.917313 
	C260.414276,175.284286 258.914062,173.722015 257.442200,172.135818 
	C254.741257,169.225098 254.250381,166.307846 256.519104,162.708267 
	C259.175842,158.493042 261.410095,153.999237 263.644409,149.534592 
	C264.983093,146.859589 266.763763,145.619904 269.886902,145.646698 
	C284.710876,145.773865 299.536469,145.704086 314.361511,145.712402 
	C316.024506,145.713348 317.753204,145.588882 318.983154,147.700348 
M275.926117,216.379227 
	C249.621338,225.514374 237.261810,249.971344 246.015579,274.993835 
	C253.843170,297.368896 279.842773,310.174927 298.454407,304.368011 
	C278.319214,273.495483 282.401489,244.945480 307.979431,218.500702 
	C297.238007,213.737473 287.102905,213.350250 275.926117,216.379227 
M350.005005,277.505371 
	C352.628937,268.092346 353.370697,258.612915 351.659058,248.906006 
	C349.305450,235.558563 344.055359,223.752655 333.851562,214.581940 
	C318.031158,200.363297 299.057709,196.254990 278.546143,198.613663 
	C268.731140,199.742294 259.462067,203.286545 251.529205,209.508545 
	C234.152634,223.137558 226.124146,240.954559 227.244812,263.086578 
	C228.277054,283.472168 237.449127,299.227142 253.598450,311.199707 
	C267.589661,321.572357 283.635773,323.127441 300.249084,321.393188 
	C303.796387,321.022888 307.737579,320.688751 310.671997,318.132263 
	C307.512512,313.344452 303.763489,312.368683 298.512573,313.975616 
	C293.281799,315.576447 287.741425,315.187195 282.205200,314.417847 
	C257.953125,311.047699 236.195892,288.330231 234.660233,264.682220 
	C232.477478,231.069244 258.248901,204.757004 290.349945,205.449905 
	C327.788208,206.258011 353.302094,240.768860 341.754272,276.307404 
	C338.826141,285.318756 333.969452,293.106750 327.601044,300.007660 
	C331.388367,304.073486 334.550537,303.886688 337.846497,300.020508 
	C343.338043,293.578918 347.137482,286.256653 350.005005,277.505371 
M387.657196,255.884750 
	C383.307861,237.155060 367.069519,225.377518 353.469543,226.704559 
	C366.844635,254.532913 362.547516,280.537415 344.637695,305.065674 
	C371.179352,309.120544 394.269135,287.857025 387.657196,255.884750 
M391.119537,300.614594 
	C392.007507,299.406647 392.934662,298.225372 393.777771,296.986908 
	C413.817169,267.550568 403.188080,228.701645 371.298981,215.078934 
	C362.822144,211.457718 353.966553,209.947983 344.494049,210.911316 
	C345.421936,214.720383 347.029053,216.544128 350.720032,216.847458 
	C355.331207,217.226395 359.983887,217.997986 364.437469,219.246429 
	C387.350220,225.669479 401.399078,250.367874 396.261902,275.853149 
	C392.744385,293.303253 382.566589,305.705322 365.460999,311.434387 
	C347.844757,317.334473 331.116119,315.382507 316.830200,302.826141 
	C293.815063,282.597351 293.996094,250.732239 316.817078,230.166565 
	C318.023438,229.079407 319.653290,228.328384 320.193878,226.325058 
	C318.807373,223.494446 317.173706,223.170029 314.515472,225.371063 
	C297.747833,239.254761 290.823059,256.720001 295.490204,278.185944 
	C300.953918,303.315796 324.085693,322.358948 348.399200,321.555634 
	C365.342712,320.995819 379.700409,314.428528 391.119537,300.614594 
M335.724213,261.389954 
	C336.095032,250.867859 333.929871,241.124298 327.438507,232.563843 
	C310.826294,242.739990 300.493530,268.219391 316.267242,290.484039 
	C318.875427,294.165497 320.950470,294.004028 323.688568,291.067261 
	C331.240265,282.967499 335.473389,273.486328 335.724213,261.389954 
M293.249054,163.612244 
	C299.874390,164.322937 299.232758,159.210297 300.503204,154.617523 
	C293.999786,154.264832 288.011414,154.190567 281.957550,154.786438 
	C283.617645,162.752213 284.653625,163.606461 293.249054,163.612244 
M308.467224,172.350540 
	C305.593536,171.926865 304.240845,173.400223 303.701904,176.046982 
	C303.065155,179.174255 302.325958,182.280670 301.430298,186.296982 
	C306.076019,181.775024 310.149231,178.063690 313.158569,173.436325 
	C311.893707,171.885483 310.468628,172.547287 308.467224,172.350540 
M276.260590,172.436081 
	C274.214691,172.591400 272.168793,172.746735 268.517212,173.023956 
	C273.814117,177.624893 278.101471,181.348907 281.985962,184.722992 
	C280.305817,181.162445 281.291901,175.819519 276.260590,172.436081 
M293.346039,182.107178 
	C293.869019,179.083740 295.636505,176.280655 295.099121,172.735428 
	C292.739319,172.281998 290.528900,171.947723 287.862366,173.108353 
	C288.714142,177.249496 289.482361,181.321075 291.993286,185.450974 
	C292.509979,184.178391 292.812317,183.433792 293.346039,182.107178 
M272.115875,163.599991 
	C275.396301,161.618256 275.381897,161.508652 270.887665,155.282486 
	C269.274323,157.429276 267.499664,159.557831 267.699585,162.219284 
	C267.844177,164.144043 270.011292,163.434143 272.115875,163.599991 
M310.520386,156.692902 
	C310.171783,158.845825 307.997803,160.586441 308.994202,163.151733 
	C311.109253,163.738632 313.119843,164.115829 315.048187,162.851334 
	C314.240234,157.417084 313.524780,156.304916 310.520386,156.692902 
z"/>
<path fill="#000000" opacity="1.000000" stroke="none" 
	d="
M72.011345,15.700706 
	C83.340889,15.699837 94.175568,15.832430 105.003662,15.623765 
	C108.661293,15.553281 110.890373,16.666996 112.351875,20.089457 
	C114.246468,24.526100 116.464134,28.833691 118.713890,33.106720 
	C120.306953,36.132465 120.037437,38.581661 117.757812,41.243156 
	C112.358551,47.546852 107.199188,54.056023 101.600250,60.900967 
	C110.706871,63.975769 118.999916,67.598450 126.554245,72.846100 
	C129.728088,75.050819 133.415344,72.814415 136.748215,72.352913 
	C168.234207,67.992928 199.596832,92.693214 203.461639,124.585297 
	C206.493317,149.602402 197.880936,169.895248 178.971588,185.635956 
	C160.634949,200.899933 139.585999,202.987885 117.427139,195.122650 
	C114.324600,194.021423 111.889130,194.169205 108.963158,195.410706 
	C71.093002,211.479172 18.728497,191.018661 11.643403,141.520248 
	C7.341774,111.467880 16.819923,87.059761 42.264454,69.680435 
	C49.000439,65.079575 56.798904,62.500481 64.887398,59.898804 
	C61.970463,54.974190 57.841511,51.570042 54.447632,47.565506 
	C53.264759,46.169796 51.970600,44.860439 50.653591,43.587894 
	C46.781467,39.846512 45.988598,35.994556 49.302307,31.281786 
	C51.584789,28.035624 53.393425,24.391001 54.974106,20.734375 
	C56.673466,16.803221 59.261341,15.168678 63.520866,15.641241 
	C66.154991,15.933477 68.847565,15.698828 72.011345,15.700706 
M77.699280,132.755157 
	C79.323814,115.351280 87.636749,101.128586 99.710945,88.767853 
	C84.215050,80.083229 59.868847,85.111603 47.160912,98.961189 
	C32.752964,114.663498 31.385309,137.427338 43.724705,156.154800 
	C53.119804,170.413727 76.198708,179.639526 90.411606,174.406113 
	C82.857086,161.845444 76.919769,148.765137 77.699280,132.755157 
M133.091782,148.297333 
	C130.269287,156.566269 125.415466,163.638489 119.539871,170.017578 
	C125.506760,174.576614 126.576286,174.391754 131.534195,168.027359 
	C155.488541,137.277435 145.632599,87.922920 107.509186,72.976768 
	C82.622276,63.219936 53.692581,67.726471 36.163158,85.994576 
	C23.371979,99.324776 18.042458,115.461617 19.267464,133.948135 
	C20.562624,153.493393 29.296793,168.847000 44.684341,180.565308 
	C58.821453,191.331375 75.140251,193.255325 92.154068,191.403809 
	C95.560371,191.033112 99.424690,190.862015 102.332497,187.956772 
	C99.825584,184.488998 97.453011,182.081818 92.733841,183.438110 
	C71.105865,189.654022 46.727676,176.224823 35.829445,159.956833 
	C23.887114,142.130310 23.297619,123.143425 32.830643,104.504265 
	C42.673996,85.258324 59.229561,75.625092 81.107880,75.616806 
	C120.345032,75.601952 145.710266,110.518997 133.091782,148.297333 
M179.078842,123.508110 
	C173.524887,105.057266 157.329239,95.359138 145.456192,96.686333 
	C158.855087,124.510551 154.589188,150.517715 136.694839,174.986084 
	C150.923843,178.442474 168.190552,170.475342 175.538635,157.596924 
	C181.572083,147.022629 181.959839,135.820679 179.078842,123.508110 
M93.522675,124.361633 
	C96.163948,113.958847 102.089333,105.721359 110.244202,98.940819 
	C111.516777,97.882706 113.134964,96.795616 111.322487,94.917397 
	C109.837395,93.378441 108.424568,93.938866 106.923393,95.081734 
	C95.516991,103.765640 88.192924,115.180969 86.496689,129.325363 
	C81.936409,167.351837 116.141685,196.307419 147.271011,190.994934 
	C171.137817,186.921875 190.656906,169.661453 195.152390,143.366776 
	C198.922913,121.312592 190.030792,99.553185 168.124817,87.408768 
	C158.228912,81.922607 147.515427,79.745132 135.857834,80.688835 
	C137.358841,84.647141 139.256622,86.619888 143.286026,86.922302 
	C152.655609,87.625504 161.708801,89.759682 169.518295,95.435768 
	C188.356430,109.127647 194.846344,136.365906 184.384628,157.713547 
	C174.132629,178.633194 149.185135,189.334183 126.522018,182.627060 
	C103.141144,175.707504 86.572723,150.759079 93.522675,124.361633 
M121.130196,104.633324 
	C119.122360,101.199982 117.124084,103.435944 115.538216,104.883156 
	C102.492630,116.788200 94.691986,135.278519 105.230225,155.315231 
	C110.340248,165.031082 111.799194,167.692093 119.700996,156.137314 
	C130.836578,139.853775 130.510025,122.529442 121.130196,104.633324 
M89.741150,24.402411 
	C84.467186,24.402411 79.193222,24.402411 73.795906,24.402411 
	C75.623543,33.116482 80.755302,36.092171 88.466965,33.495056 
	C91.534332,32.462036 92.809433,26.867641 89.741150,24.402411 
M96.369492,53.544704 
	C99.426071,50.223862 103.026459,47.330425 105.106842,42.984360 
	C96.717178,41.860729 96.298859,39.708019 94.643791,56.086239 
	C95.059334,55.371601 95.474876,54.656963 96.369492,53.544704 
M80.965553,47.902893 
	C81.753494,50.524937 82.236320,53.265564 84.143028,56.077106 
	C85.661995,51.563072 86.957161,47.483246 87.322166,43.136196 
	C84.847542,41.969692 82.652176,42.116432 80.286201,42.910156 
	C79.751778,44.432579 80.379463,45.813309 80.965553,47.902893 
M68.984200,42.571941 
	C66.710770,42.292400 64.466209,42.362164 61.762814,43.118275 
	C65.909424,47.534229 69.811127,51.689381 73.712837,55.844532 
	C72.753517,51.296345 72.753845,46.555565 68.984200,42.571941 
M62.347240,25.832449 
	C61.072460,28.053663 58.977413,29.993027 59.818996,33.347897 
	C62.084213,33.452415 64.297348,34.314041 66.627708,32.598919 
	C65.841232,29.852667 65.302406,27.174974 62.347240,25.832449 
M103.170105,26.301592 
	C101.916840,28.372154 100.582359,30.417490 100.852829,33.176327 
	C103.278770,33.759148 105.460670,33.957687 108.053207,32.904533 
	C106.449165,30.452559 106.611755,27.329281 103.170105,26.301592 
z"/>
</svg>