<?xml version="1.0" encoding="UTF-8"?>
<svg version="1.1" xmlns="http://www.w3.org/2000/svg" width="200" height="200">
<path d="M0 0 C13.31331618 0.93340593 25.12049418 11.88878307 34.3125 20.5625 C35.76161833 21.92652329 37.21924995 23.28159192 38.6875 24.625 C39.29335937 25.19347656 39.89921875 25.76195313 40.5234375 26.34765625 C42.50360685 27.93701095 42.50360685 27.93701095 46.3125 27.5625 C48.10642551 26.82465309 49.87530003 26.02483913 51.625 25.1875 C58.62301883 22.16249432 65.67982497 20.72328745 73.3125 20.5625 C74.3025 21.2225 75.2925 21.8825 76.3125 22.5625 C75.8175 25.0375 75.8175 25.0375 75.3125 27.5625 C74.18972656 27.72105469 73.06695312 27.87960938 71.91015625 28.04296875 C63.57322149 29.31104621 56.31745686 30.51334306 49.3125 35.5625 C50.6325 36.8825 51.9525 38.2025 53.3125 39.5625 C54.240625 39.0675 55.16875 38.5725 56.125 38.0625 C61.09069871 35.96162747 66.00874135 35.83680377 71.3125 36.5625 C73.35676661 37.43692618 75.17719092 38.49395821 77.09375 39.6171875 C80.91739868 41.24627726 84.93106592 41.08885338 89.0390625 41.28515625 C93.36603421 41.65176125 100.07416424 42.32416424 103.3125 45.5625 C103.35313832 47.22867115 103.355221 48.89638095 103.3125 50.5625 C99.44584004 52.04967691 97.10962698 50.90266247 93.3125 49.5625 C90.98555036 49.18718554 88.65273315 48.84332798 86.3125 48.5625 C86.6425 49.2225 86.9725 49.8825 87.3125 50.5625 C87.99378376 57.37533762 87.99378376 57.37533762 86.265625 60.38671875 C84.48406722 62.55078747 82.83640368 64.30054816 80.3125 65.5625 C73.07162409 66.14644161 73.07162409 66.14644161 69.875 63.6875 C66.78588642 59.48630554 66.63459694 55.66878278 67.3125 50.5625 C69.3125 47.5 69.3125 47.5 71.3125 45.5625 C68.97137549 44.11272106 67.7328071 43.51935589 64.953125 43.8046875 C64.16421875 44.01351562 63.3753125 44.22234375 62.5625 44.4375 C61.76328125 44.64117187 60.9640625 44.84484375 60.140625 45.0546875 C59.53734375 45.22226563 58.9340625 45.38984375 58.3125 45.5625 C59.18969868 47.90169648 60.09560477 50.16814503 61.30078125 52.359375 C63.98549792 57.24067804 65.63103146 61.91387552 65.3125 67.5625 C64.36430102 70.13650017 63.67482679 71.32809831 61.34936523 72.83251953 C60.12262085 73.38335205 60.12262085 73.38335205 58.87109375 73.9453125 C57.91565674 74.38117676 56.96021973 74.81704102 55.97583008 75.26611328 C54.91130615 75.7351709 53.84678223 76.20422852 52.75 76.6875 C51.62682373 77.19394043 50.50364746 77.70038086 49.34643555 78.22216797 C46.08687962 79.68892266 42.81873794 81.13558448 39.54797363 82.57714844 C37.1766218 83.62239236 34.80651773 84.67043187 32.43652344 85.71875 C22.78980673 89.98262966 13.13015521 94.21595441 3.46112061 98.42895508 C-1.42591822 100.56220438 -6.29437589 102.73024769 -11.1484375 104.9375 C-12.20458252 105.41300293 -13.26072754 105.88850586 -14.34887695 106.37841797 C-16.20178176 107.21450949 -18.04985795 108.06144228 -19.89135742 108.92236328 C-25.67512493 111.51117133 -30.55964356 112.75779656 -36.859375 110.93359375 C-41.32323112 108.29284718 -43.94491527 105.48941187 -45.6875 100.5625 C-46.52655503 94.10179548 -45.16301785 89.10290286 -42.453125 83.296875 C-42.10764618 82.52098022 -41.76216736 81.74508545 -41.40621948 80.94567871 C-40.26563797 78.39391621 -39.101932 75.85345633 -37.9375 73.3125 C-37.13109598 71.52250907 -36.32627513 69.73180415 -35.52294922 67.94042969 C-33.81705518 64.14060187 -32.10264315 60.34476229 -30.38378906 56.55078125 C-27.60361921 50.39738592 -24.88802062 44.21652649 -22.1796875 38.03125 C-20.83014241 34.95795022 -19.47984364 31.88498277 -18.12927246 28.81213379 C-17.25478126 26.82002549 -16.38212626 24.82711008 -15.51135254 22.83337402 C-14.28820605 20.03672195 -13.05545322 17.24449645 -11.8203125 14.453125 C-11.46057343 13.62470093 -11.10083435 12.79627686 -10.73019409 11.94274902 C-5.80811967 0.88598436 -5.80811967 0.88598436 0 0 Z M-5.6875 17.5625 C-8.9781283 23.99368994 -8.9781283 23.99368994 -8.9375 30.9375 C-8.525 31.80375 -8.1125 32.67 -7.6875 33.5625 C-7.6875 34.8825 -7.6875 36.2025 -7.6875 37.5625 C-9.3375 37.8925 -10.9875 38.2225 -12.6875 38.5625 C-13.0175 37.9025 -13.3475 37.2425 -13.6875 36.5625 C-13.15024105 39.93955625 -12.57685377 43.259186 -11.6875 46.5625 C-16.4375 47.6875 -16.4375 47.6875 -18.6875 46.5625 C-22.69716234 54.62831352 -26.01277447 61.38823528 -23.6875 70.5625 C-26.6875 71.5625 -26.6875 71.5625 -29.6875 71.5625 C-29.31596876 73.17246871 -28.91418367 74.775473 -28.5 76.375 C-28.27957031 77.26832031 -28.05914063 78.16164062 -27.83203125 79.08203125 C-26.35642143 82.28002523 -24.75512179 82.92105325 -21.6875 84.5625 C-19.35026211 86.55289652 -17.11808084 88.6314395 -14.87109375 90.72265625 C-12.8311814 92.4414375 -11.19088079 93.6563683 -8.6875 94.5625 C-7.2025 94.0675 -7.2025 94.0675 -5.6875 93.5625 C-6.64849609 93.03462891 -6.64849609 93.03462891 -7.62890625 92.49609375 C-21.35937667 84.65888038 -21.35937667 84.65888038 -23.3359375 78.5625 C-23.625 76.625 -23.625 76.625 -23.6875 73.5625 C-22.0375 73.5625 -20.3875 73.5625 -18.6875 73.5625 C-18.42066406 74.15160156 -18.15382813 74.74070313 -17.87890625 75.34765625 C-14.38294394 81.84670749 -7.60087163 87.12710772 -0.6875 89.5625 C4.81397976 90.0824765 8.33498194 88.99467389 13.25 86.5625 C14.39339844 86.005625 15.53679687 85.44875 16.71484375 84.875 C17.57207031 84.441875 18.42929688 84.00875 19.3125 83.5625 C17.23204175 81.97693135 15.13836052 80.4444689 12.97265625 78.9765625 C3.992799 72.79193901 -5.75450467 64.85956485 -11.6875 55.5625 C-11.875 52.8125 -11.875 52.8125 -11.6875 50.5625 C-8.53475582 50.87127391 -7.06230597 51.17108871 -4.8359375 53.49609375 C-4.25070313 54.32238281 -3.66546875 55.14867187 -3.0625 56 C4.16957694 65.48025068 13.22608359 73.82339916 24.3125 78.5625 C25.3025 78.2325 26.2925 77.9025 27.3125 77.5625 C26.42111328 77.06943359 26.42111328 77.06943359 25.51171875 76.56640625 C12.35941982 69.01866394 -0.03805727 58.86183509 -7.6875 45.5625 C-7.6875 44.5725 -7.6875 43.5825 -7.6875 42.5625 C-5.41796875 42.2890625 -5.41796875 42.2890625 -2.6875 42.5625 C-0.80078125 44.3984375 -0.80078125 44.3984375 1 46.9375 C9.95685319 58.78527782 21.17767993 69.326154 35.3125 74.5625 C39.70882278 74.33510399 43.31510352 73.3794984 47.3125 71.5625 C47.3125 70.9025 47.3125 70.2425 47.3125 69.5625 C45.31656603 68.21855062 43.3156526 66.9784694 41.25 65.75 C23.13145653 54.51002965 8.59815812 39.01015661 -2.5625 20.9375 C-3.26375 19.82375 -3.965 18.71 -4.6875 17.5625 C-5.0175 17.5625 -5.3475 17.5625 -5.6875 17.5625 Z M15 19.5625 C13.03330976 21.54262979 13.03330976 21.54262979 12.8125 24.75 C14.62018016 38.53356121 27.3906832 48.17051979 37.69580078 56.32128906 C44.19856809 61.3137489 50.16861078 65.17957541 58.3125 66.5625 C57.90933075 60.24618172 55.60017869 55.91256016 52.3125 50.5625 C51.3225 51.2225 50.3325 51.8825 49.3125 52.5625 C47.9925 52.5625 46.6725 52.5625 45.3125 52.5625 C45.4775 51.655 45.6425 50.7475 45.8125 49.8125 C46.41387146 46.45162497 46.41387146 46.45162497 46.3125 42.5625 C44.39227297 40.78840192 44.39227297 40.78840192 42.3125 39.5625 C40.9821875 41.0165625 40.9821875 41.0165625 39.625 42.5 C36.98634791 45.16372242 35.16918285 46.3356363 31.3125 46.5625 C31.60373499 40.59218261 34.34064384 37.667966 38.3125 33.5625 C28.48897788 21.79627925 28.48897788 21.79627925 15 19.5625 Z M74.3125 51.5625 C73.38856836 53.42446946 73.38856836 53.42446946 73.3125 55.5625 C74.17040183 57.78021064 74.17040183 57.78021064 75.3125 59.5625 C76.9625 58.9025 78.6125 58.2425 80.3125 57.5625 C80.52220559 53.42156302 80.52220559 53.42156302 79.3125 49.5625 C76.98892489 49.37759993 76.98892489 49.37759993 74.3125 51.5625 Z M-33.6875 80.5625 C-34.72766797 82.76343512 -35.74427031 84.97088069 -36.75 87.1875 C-37.19182617 88.11369141 -37.19182617 88.11369141 -37.64257812 89.05859375 C-39.54450234 93.30995377 -40.03226874 96.08643401 -38.6875 100.5625 C-36.79597573 103.19307551 -36.79597573 103.19307551 -33.6875 104.5625 C-27.11773225 105.08451643 -21.42160917 102.47699994 -15.6875 99.5625 C-15.6875 98.9025 -15.6875 98.2425 -15.6875 97.5625 C-17.26419369 96.19234736 -18.89993838 94.88958298 -20.5625 93.625 C-23.56937545 91.33343538 -25.57804025 89.72668962 -27.6875 86.5625 C-27.3125 83.875 -27.3125 83.875 -26.6875 81.5625 C-27.47125 81.583125 -28.255 81.60375 -29.0625 81.625 C-31.6875 81.5625 -31.6875 81.5625 -33.6875 80.5625 Z " fill="#000000" transform="translate(52.6875,79.4375)"/>
<path d="M0 0 C0.721875 0.12375 1.44375 0.2475 2.1875 0.375 C2.9375 2.625 2.9375 2.625 3.1875 5.375 C1.3125 7.4375 1.3125 7.4375 -0.8125 9.375 C-1.5997678 11.5131966 -1.5997678 11.5131966 -1.8125 13.375 C-1.090625 13.16875 -0.36875 12.9625 0.375 12.75 C3.75969674 12.2987071 5.24223969 12.66984929 8.1875 14.375 C10.125 16.625 10.125 16.625 11.1875 19.375 C10.60767812 22.66065733 10.12458736 24.61144733 7.5 26.75 C3.42124412 27.85236645 -0.31526951 27.98924841 -4.25 26.375 C-4.765625 26.045 -5.28125 25.715 -5.8125 25.375 C-3.18607261 28.07867525 -0.58174062 30.59826049 2.375 32.9375 C5.56477119 35.70196837 7.02524157 37.13846487 7.33203125 41.3671875 C7.37123196 43.36998749 7.2858983 45.37423458 7.1875 47.375 C6.8575 47.705 6.5275 48.035 6.1875 48.375 C4.5375 48.375 2.8875 48.375 1.1875 48.375 C0.5275 45.075 -0.1325 41.775 -0.8125 38.375 C-2.111875 38.0965625 -2.111875 38.0965625 -3.4375 37.8125 C-7.85321104 35.93173419 -10.44139696 33.55498577 -12.8125 29.375 C-13.50744062 26.34099097 -13.28246783 24.56033753 -12.8125 21.375 C-12.07966797 20.43333984 -12.07966797 20.43333984 -11.33203125 19.47265625 C-9.48206561 16.91884764 -9.29480763 15.11119086 -8.9375 12 C-8.01587875 6.3103217 -6.50738987 0.86765198 0 0 Z M0.1875 19.375 C4.1875 20.375 4.1875 20.375 4.1875 20.375 Z " fill="#000000" transform="translate(56.8125,31.625)"/>
<path d="M0 0 C4.0774675 2.07580164 6.8426715 4.74699488 10 8 C11.18515507 8.96123176 12.37286905 9.91931321 13.5625 10.875 C16.74156485 13.59016697 18.57987557 15.9902369 20 20 C20.1875 23.375 20.1875 23.375 20 26 C18.1875 26.6875 18.1875 26.6875 16 27 C12.83774862 24.84966906 11.52295334 21.40851462 10 18 C10 17.34 10 16.68 10 16 C9.34 16 8.68 16 8 16 C7.9175 16.5775 7.835 17.155 7.75 17.75 C6.58302087 21.25093738 4.26813575 23.36593212 1 25 C-3.05263598 25.54035146 -4.53730231 25.34199395 -7.875 22.875 C-10.36919235 19.50050447 -10.61049806 18.09905842 -10 14 C-8.77228817 10.09364418 -6.54293666 8.86470351 -3 7 C-3.92232422 7.14308594 -3.92232422 7.14308594 -4.86328125 7.2890625 C-5.67152344 7.39992187 -6.47976562 7.51078125 -7.3125 7.625 C-8.11300781 7.74101562 -8.91351563 7.85703125 -9.73828125 7.9765625 C-12 8 -12 8 -15 6 C-14.6875 4.125 -14.6875 4.125 -14 2 C-9.533998 -0.97733467 -5.23721092 -0.61525974 0 0 Z M-3 15 C-3 15.99 -3 16.98 -3 18 C-1.01508358 17.73323796 -1.01508358 17.73323796 1 17 C1.33 16.01 1.66 15.02 2 14 C-0.9254644 13.7763932 -0.9254644 13.7763932 -3 15 Z " fill="#000000" transform="translate(173,134)"/>
<path d="M0 0 C3.98027918 1.56940538 6.27465702 4.22172639 8.328125 7.91796875 C9.015625 11.54296875 9.015625 11.54296875 9.328125 14.91796875 C9.823125 15.72234375 10.318125 16.52671875 10.828125 17.35546875 C13.70785359 22.27500509 13.72212396 27.04441937 12.390625 32.41796875 C11.8646875 34.15046875 11.8646875 34.15046875 11.328125 35.91796875 C9.67197843 36.30015642 8.00355476 36.63191977 6.328125 36.91796875 C5.833125 36.42296875 5.833125 36.42296875 5.328125 35.91796875 C5.41830496 33.72746854 5.57478708 31.53950275 5.765625 29.35546875 C5.86746094 28.15792969 5.96929687 26.96039063 6.07421875 25.7265625 C6.15800781 24.79972656 6.24179687 23.87289062 6.328125 22.91796875 C5.59722656 23.40394531 4.86632812 23.88992187 4.11328125 24.390625 C0.11906142 26.58100362 -3.22412704 26.63989799 -7.671875 25.91796875 C-10.234375 24.41796875 -10.234375 24.41796875 -11.671875 21.91796875 C-12.4554659 17.892786 -12.29597734 14.95813931 -10.171875 11.41796875 C-6.53178777 9.23391641 -3.87532767 9.63773857 0.328125 9.91796875 C0.328125 9.25796875 0.328125 8.59796875 0.328125 7.91796875 C-2.641875 6.92796875 -5.611875 5.93796875 -8.671875 4.91796875 C-8.671875 3.26796875 -8.671875 1.61796875 -8.671875 -0.08203125 C-5.61429401 -1.61082175 -3.24320202 -0.77941468 0 0 Z M-3.671875 15.91796875 C-4.661875 17.40296875 -4.661875 17.40296875 -5.671875 18.91796875 C-2.62274272 19.92907968 -2.62274272 19.92907968 0.328125 18.91796875 C0.328125 18.25796875 0.328125 17.59796875 0.328125 16.91796875 C-0.991875 16.58796875 -2.311875 16.25796875 -3.671875 15.91796875 Z " fill="#000000" transform="translate(28.671875,29.08203125)"/>
<path d="M0 0 C3.49406769 1.66762322 4.82670681 2.74006022 7 6 C7.07905064 8.33199388 7.08798769 10.66832622 7 13 C10.72114571 10.68462045 13.61229661 8.71420527 16 5 C18.475 5.495 18.475 5.495 21 6 C20.82071819 10.57168607 20.50606013 12.48243851 17.25 15.8125 C12.68255924 18.88673898 9.17282927 20.16860556 3.6875 20.375 C-1.03432851 20.71136682 -4.13736009 21.8202036 -8.20703125 24.14453125 C-10.82473788 25.39350239 -13.16057054 25.28394295 -16 25 C-16.33 23.35 -16.66 21.7 -17 20 C-11.25 17 -11.25 17 -9 17 C-9.495 16.13375 -9.99 15.2675 -10.5 14.375 C-12.08798946 10.80202372 -12.58543148 8.84712118 -12 5 C-8.37177999 0.52519533 -5.70149558 -0.44717612 0 0 Z M-5 7 C-4.67 8.32 -4.34 9.64 -4 11 C-2.68 11 -1.36 11 0 11 C-0.33 9.68 -0.66 8.36 -1 7 C-2.32 7 -3.64 7 -5 7 Z " fill="#000000" transform="translate(113,72)"/>
<path d="M0 0 C1.9375 0 1.9375 0 4 1 C7.24883912 5.7572287 7.52977613 9.43735067 7 15 C5.625 18 5.625 18 4 20 C3.34 20 2.68 20 2 20 C2.0825 21.134375 2.165 22.26875 2.25 23.4375 C2.24099652 28.47945011 0.83989956 32.82207083 -2 37 C-4.6875 38.125 -4.6875 38.125 -7 38 C-7.33 37.67 -7.66 37.34 -8 37 C-7.55051178 32.41522012 -6.5808807 28.3210739 -5 24 C-5.92232422 24.05220703 -5.92232422 24.05220703 -6.86328125 24.10546875 C-7.67152344 24.13253906 -8.47976562 24.15960938 -9.3125 24.1875 C-10.51326172 24.23970703 -10.51326172 24.23970703 -11.73828125 24.29296875 C-14 24 -14 24 -15.73828125 22.6640625 C-17.66315048 20.12538049 -17.87598229 18.16245159 -18 15 C-16.67507024 11.71922154 -15.499964 9.499964 -13 7 C-9.6875 6.5625 -9.6875 6.5625 -6 7 C-3.0625 9.5 -3.0625 9.5 -1 12 C-1.09539062 11.30132812 -1.19078125 10.60265625 -1.2890625 9.8828125 C-1.39992188 8.97273438 -1.51078125 8.06265625 -1.625 7.125 C-1.79902344 5.76761719 -1.79902344 5.76761719 -1.9765625 4.3828125 C-1.98429687 3.59648438 -1.99203125 2.81015625 -2 2 C-1.34 1.34 -0.68 0.68 0 0 Z M-10 14 C-10 15.32 -10 16.64 -10 18 C-9.01 18 -8.02 18 -7 18 C-7.33 16.68 -7.66 15.36 -8 14 C-8.66 14 -9.32 14 -10 14 Z " fill="#000000" transform="translate(106,29)"/>
<path d="M0 0 C2.25 -0.375 2.25 -0.375 5 0 C11.02133098 7.05355914 11.43433633 15.15558257 11.328125 24.05078125 C10.80006978 30.40630304 9.66838278 38.33161722 5 43 C2.875 42.625 2.875 42.625 1 42 C-0.09976142 38.73004272 0.09829624 37.04919008 1.375 33.875 C4.37737036 25.42132125 4.58425401 17.61418002 2 9 C1.64808594 8.30132812 1.29617187 7.60265625 0.93359375 6.8828125 C-0.25010347 4.49560722 -0.14602319 2.62841748 0 0 Z " fill="#000000" transform="translate(80,52)"/>
<path d="M0 0 C0.495 2.475 0.495 2.475 1 5 C0.09121094 5.34611328 0.09121094 5.34611328 -0.8359375 5.69921875 C-10.50828672 9.46399468 -18.57829466 12.97385002 -25.89453125 20.5234375 C-28 22 -28 22 -30.76171875 21.7265625 C-31.50035156 21.48679687 -32.23898438 21.24703125 -33 21 C-33.30359348 17.97453396 -33.36644894 16.49441523 -31.5234375 14.0078125 C-22.68788178 6.26465276 -11.9726532 -0.22589912 0 0 Z " fill="#000000" transform="translate(152,45)"/>
<path d="M0 0 C5.49106853 0.03648551 10.68133487 0.62413894 16.0625 1.625 C16.74900635 1.75100586 17.4355127 1.87701172 18.14282227 2.00683594 C21.47170876 2.67236429 23.57291226 3.34027484 26.4375 5.25 C26.625 7.875 26.625 7.875 26.4375 10.25 C24.89558846 10.10677897 23.35398108 9.96028211 21.8125 9.8125 C20.52472656 9.69068359 20.52472656 9.69068359 19.2109375 9.56640625 C17.33836852 9.35277514 15.47207523 9.07617006 13.6171875 8.7421875 C9.0968376 8.04247732 4.57500571 7.90021302 0.0078125 7.73242188 C-5.34575123 7.46674877 -5.34575123 7.46674877 -7.5625 5.25 C-6.75498709 -0.07958521 -5.10876773 0.07522112 0 0 Z " fill="#000000" transform="translate(143.5625,108.75)"/>
<path d="M0 0 C1.34771484 0.27457031 1.34771484 0.27457031 2.72265625 0.5546875 C4.9375 1.125 4.9375 1.125 5.9375 2.125 C5.89957417 3.75289352 5.78237354 5.37928742 5.625 7 C5.50705078 8.32644531 5.50705078 8.32644531 5.38671875 9.6796875 C4.9375 12.125 4.9375 12.125 2.9375 15.125 C-5.09821429 14.32142857 -5.09821429 14.32142857 -9.0625 12.125 C-8.92081863 10.68708484 -8.77398957 9.2496763 -8.625 7.8125 C-8.54378906 7.01199219 -8.46257812 6.21148437 -8.37890625 5.38671875 C-8.0625 3.125 -8.0625 3.125 -7.0625 0.125 C-4.36113366 -1.22568317 -2.92686954 -0.61485317 0 0 Z " fill="#000000" transform="translate(150.0625,63.875)"/>
<path d="M0 0 C3.96670899 0.44074544 6.68811135 1.82361603 10 4 C9.56179109 8.55737263 9.14958831 11.57653445 6 15 C0.64951939 14.62671065 -1.50912907 13.0042343 -5 9 C-4.3566152 7.686298 -3.71021785 6.37407102 -3.0625 5.0625 C-2.70285156 4.33160156 -2.34320312 3.60070313 -1.97265625 2.84765625 C-1 1 -1 1 0 0 Z " fill="#000000" transform="translate(22,58)"/>
<path d="M0 0 C2.97 0.99 5.94 1.98 9 3 C9.32613618 7.67461851 8.70582788 10.16674383 6 14 C2.28111761 13.49287967 -0.73454239 12.88391785 -4 11 C-3.56179109 6.44262737 -3.14958831 3.42346555 0 0 Z " fill="#000000" transform="translate(147,145)"/>
<path d="M0 0 C1.22589844 0.15275391 1.22589844 0.15275391 2.4765625 0.30859375 C3.41628906 0.43427734 3.41628906 0.43427734 4.375 0.5625 C5.63764601 4.85549643 5.00450412 7.44081311 3.375 11.5625 C1.89593108 11.58939216 0.41672517 11.60884621 -1.0625 11.625 C-2.29806641 11.64240234 -2.29806641 11.64240234 -3.55859375 11.66015625 C-5.625 11.5625 -5.625 11.5625 -6.625 10.5625 C-6.69705511 8.87641034 -6.70886068 7.18749341 -6.6875 5.5 C-6.67847656 4.58089844 -6.66945312 3.66179687 -6.66015625 2.71484375 C-6.64855469 2.00457031 -6.63695312 1.29429688 -6.625 0.5625 C-4.10446405 -0.69776798 -2.7707902 -0.35624445 0 0 Z " fill="#000000" transform="translate(149.625,91.4375)"/>
<path d="M0 0 C2.99773701 1.15297577 4.00312605 2.0687521 5.4375 4.9375 C5.4375 7.5 5.4375 7.5 4.4375 9.9375 C2.00713742 11.90806425 0.47382343 12.9375 -2.6875 12.9375 C-5.44340884 11.46768195 -6.31592367 9.75869907 -7.5625 6.9375 C-7.47820051 4.0713174 -6.80373999 3.1873557 -4.8125 1.125 C-2.5625 -0.0625 -2.5625 -0.0625 0 0 Z " fill="#000000" transform="translate(182.5625,99.0625)"/>
<path d="M0 0 C1.63793271 2.18391028 1.97920371 3.87819315 2.4375 6.5625 C2 9 2 9 -0.1875 10.875 C-3.41943634 12.16777454 -4.78585313 12.30303251 -8 11 C-9.63793271 8.81608972 -9.97920371 7.12180685 -10.4375 4.4375 C-10 2 -10 2 -7.8125 0.125 C-4.58056366 -1.16777454 -3.21414687 -1.30303251 0 0 Z " fill="#000000" transform="translate(132,159)"/>
<path d="M0 0 C2.65828766 1.55830656 3.5794339 3.27187672 4.8125 6.0625 C4.9375 8.1875 4.9375 8.1875 3.8125 10.0625 C0.25 11.8125 0.25 11.8125 -3.1875 13.0625 C-6.4417015 10.22819547 -7.7081753 8.37642226 -8.1875 4.0625 C-2.88056931 0.08230198 -2.88056931 0.08230198 0 0 Z " fill="#000000" transform="translate(74.1875,32.9375)"/>
<path d="M0 0 C0.94552734 0.16242187 0.94552734 0.16242187 1.91015625 0.328125 C4.21179507 3.78058324 4.25505947 5.27551213 3.91015625 9.328125 C1.91015625 11.328125 1.91015625 11.328125 0 11.55859375 C-5.97873264 11.43923611 -5.97873264 11.43923611 -7.08984375 10.328125 C-7.18774945 8.83074376 -7.21959239 7.32869608 -7.21484375 5.828125 C-7.21742187 5.0134375 -7.22 4.19875 -7.22265625 3.359375 C-6.93679735 -1.01258472 -3.69208627 0.13401402 0 0 Z " fill="#000000" transform="translate(67.08984375,10.671875)"/>
<path d="M0 0 C2 2 2 2 2.375 4.4375 C2 7 2 7 0.25 8.875 C-2 10 -2 10 -4.125 9.875 C-6 9 -6 9 -8 6 C-8.125 3.3125 -8.125 3.3125 -8 1 C-4.9553071 -0.84856355 -3.35670253 -1.34268101 0 0 Z " fill="#000000" transform="translate(126,34)"/>
<path d="M0 0 C6.75 0.875 6.75 0.875 9 2 C8.125 7.75 8.125 7.75 7 10 C0.25 9.125 0.25 9.125 -2 8 C-1.47731534 5.23723823 -0.89130413 2.6739124 0 0 Z " fill="#000000" transform="translate(168,46)"/>
</svg>
