<?xml version="1.0" standalone="no"?>
<!DOCTYPE svg PUBLIC "-//W3C//DTD SVG 20010904//EN"
 "http://www.w3.org/TR/2001/REC-SVG-20010904/DTD/svg10.dtd">
<svg version="1.0" xmlns="http://www.w3.org/2000/svg"
 width="200.000000pt" height="200.000000pt" viewBox="0 0 200.000000 200.000000"
 preserveAspectRatio="xMidYMid meet">

<g transform="translate(0.000000,200.000000) scale(0.100000,-0.100000)"
fill="#000000" stroke="none">
<path d="M915 1800 c-264 -81 -491 -155 -504 -165 -52 -39 -51 -31 -51 -788 0
-490 3 -714 11 -736 22 -62 11 -61 629 -61 628 0 610 -2 630 68 8 25 10 256 8
745 l-3 709 -28 24 c-22 18 -40 24 -78 24 l-49 0 0 129 c0 162 -13 202 -65
200 -11 -1 -236 -68 -500 -149z m493 -52 l-3 -123 -409 -3 c-225 -1 -407 0
-404 3 9 10 771 243 796 244 23 1 23 0 20 -121z m160 -893 c1 -379 0 -700 -3
-713 l-5 -22 -563 2 -562 3 -3 700 c-1 385 0 706 3 713 3 10 122 12 567 10
l563 -3 3 -690z"/>
<path d="M651 1271 c-37 -72 -30 -112 53 -277 40 -82 81 -155 90 -163 18 -15
60 -19 91 -8 18 6 36 -22 160 -239 77 -135 147 -250 156 -255 19 -10 109 43
109 64 0 8 -80 124 -177 258 -97 134 -236 336 -308 448 -73 113 -137 207 -143
209 -6 2 -20 -15 -31 -37z"/>
<path d="M1114 1177 l-88 -132 -1 -70 c0 -45 5 -80 14 -97 18 -33 27 -35 41
-8 6 11 29 24 53 31 57 15 76 34 157 164 82 133 86 141 66 148 -12 5 -35 -22
-87 -96 -38 -56 -76 -102 -82 -102 -19 0 -10 22 54 126 55 89 65 119 39 119
-5 0 -41 -47 -80 -105 -39 -58 -75 -105 -80 -105 -25 0 -15 28 45 124 36 58
65 110 65 115 0 5 -6 11 -14 14 -9 4 -43 -38 -102 -126z"/>
<path d="M868 699 c-127 -171 -209 -292 -206 -306 4 -23 67 -65 92 -61 13 2
47 51 107 157 95 167 94 161 46 225 -13 18 -15 17 -39 -15z"/>
</g>
</svg>
