<?xml version="1.0" encoding="UTF-8"?>
<svg version="1.1" xmlns="http://www.w3.org/2000/svg" width="225" height="225">
<path d="M0 0 C74.25 0 148.5 0 225 0 C225 74.25 225 148.5 225 225 C150.75 225 76.5 225 0 225 C0 150.75 0 76.5 0 0 Z " fill="#060606" transform="translate(0,0)"/>
<path d="M0 0 C19.47 0 38.94 0 59 0 C59.12049101 28.61884505 59.12049101 28.61884505 59.1507616 42.72572041 C59.1674045 50.36399724 59.18855404 58.00217611 59.22631836 65.64038086 C59.25938564 72.33174738 59.27683755 79.02298595 59.28463173 85.71443748 C59.29018844 88.27140155 59.30103885 90.82835961 59.31719017 93.3852787 C59.33886639 96.9579093 59.34197099 100.53009777 59.34057617 104.1027832 C59.351362 105.16733231 59.36214783 106.23188141 59.3732605 107.32868958 C59.36707451 108.78631714 59.36707451 108.78631714 59.36076355 110.27339172 C59.36352893 111.11867589 59.36629431 111.96396006 59.36914349 112.83485889 C59 115 59 115 56 118 C37.52 118 19.04 118 0 118 C0 79.06 0 40.12 0 0 Z " fill="#FEFEFE" transform="translate(142,95)"/>
<path d="M0 0 C19.47 0 38.94 0 59 0 C59 38.94 59 77.88 59 118 C40.52 118 22.04 118 3 118 C0 115 0 115 -0.36914349 112.83485889 C-0.36637811 111.98957473 -0.36361273 111.14429056 -0.36076355 110.27339172 C-0.36488754 109.30164001 -0.36901154 108.32988831 -0.3732605 107.32868958 C-0.36247467 106.26414047 -0.35168884 105.19959137 -0.34057617 104.1027832 C-0.34101425 102.98068451 -0.34145233 101.85858582 -0.34190369 100.70248413 C-0.33980984 96.98507424 -0.31645007 93.26811258 -0.29296875 89.55078125 C-0.28737493 86.97674303 -0.28310382 84.40270161 -0.28010559 81.82865906 C-0.26981259 75.74066898 -0.24615662 69.65286452 -0.21605712 63.56494445 C-0.17924453 55.95413459 -0.16281583 48.34329853 -0.14648438 40.73242188 C-0.11725934 27.1548221 -0.05716428 13.57757473 0 0 Z " fill="#FEFEFE" transform="translate(24,95)"/>
<path d="M0 0 C11.55 0 23.1 0 35 0 C35 50.82 35 101.64 35 154 C23.45 154 11.9 154 0 154 C0 103.18 0 52.36 0 0 Z " fill="#FEFEFE" transform="translate(95,59)"/>
<path d="M0 0 C20.46 0 40.92 0 62 0 C62 16.83 62 33.66 62 51 C60.68 50.01 59.36 49.02 58 48 C55.10503145 47.67493093 52.41313948 47.51175691 49.515625 47.48828125 C48.70003113 47.47033005 47.88443726 47.45237885 47.04412842 47.43388367 C44.44613777 47.3798198 41.84833042 47.34589818 39.25 47.3125 C37.4856516 47.27932339 35.72132737 47.24483341 33.95703125 47.20898438 C29.63815317 47.1240958 25.31932908 47.05726623 21 47 C21.28222412 46.28787354 21.56444824 45.57574707 21.85522461 44.84204102 C25.46130217 35.4154607 27.3137559 26.23460969 23.0625 16.625 C18.73090246 9.26007084 13.2228054 4.29258772 4.9375 2 C3.29729118 1.64000904 1.65285058 1.29658627 0 1 C0 0.67 0 0.34 0 0 Z " fill="#FDFDFD" transform="translate(163,0)"/>
<path d="M0 0 C20.13 0 40.26 0 61 0 C61 0.33 61 0.66 61 1 C60.35933594 1.15855469 59.71867187 1.31710938 59.05859375 1.48046875 C50.44343806 3.80437811 45.36288039 6.41191036 40.625 14.125 C37.81549317 19.06792913 36.80735437 22.79745508 36.6875 28.5 C36.65011719 29.6446875 36.61273438 30.789375 36.57421875 31.96875 C36.80146039 37.27756091 39.0353484 42.12806374 41 47 C39.90010742 47.01458252 38.80021484 47.02916504 37.66699219 47.04418945 C33.58153977 47.1022147 29.49663609 47.17944706 25.41162109 47.26245117 C23.64445917 47.29568069 21.87719161 47.32371882 20.10986328 47.34643555 C17.56757649 47.38001831 15.02625592 47.43233451 12.484375 47.48828125 C11.30134796 47.49786613 11.30134796 47.49786613 10.09442139 47.50764465 C5.32390295 47.63517034 3.99713816 48.00214638 0 51 C0 34.17 0 17.34 0 0 Z " fill="#FDFDFD" transform="translate(0,0)"/>
<path d="M0 0 C23.43 0 46.86 0 71 0 C71 7.92 71 15.84 71 24 C47.57 24 24.14 24 0 24 C0 16.08 0 8.16 0 0 Z " fill="#FCFCFC" transform="translate(142,59)"/>
<path d="M0 0 C23.43 0 46.86 0 71 0 C71 7.92 71 15.84 71 24 C47.57 24 24.14 24 0 24 C0 16.08 0 8.16 0 0 Z " fill="#FCFCFC" transform="translate(12,59)"/>
<path d="M0 0 C0.33 0 0.66 0 1 0 C1 44.22 1 88.44 1 134 C-7.58 134 -16.16 134 -25 134 C-22 132 -22 132 -19.0625 130.375 C-14.61169854 126.92335805 -12.43901624 123.03899782 -11.62702179 117.4181366 C-11.46979119 114.42008252 -11.43979941 111.44552242 -11.45410156 108.44335938 C-11.44376389 107.31077698 -11.43342621 106.17819458 -11.42277527 105.0112915 C-11.39340974 101.28863147 -11.39184935 97.56651663 -11.390625 93.84375 C-11.37563923 91.25442471 -11.35891126 88.66510897 -11.34051514 86.07580566 C-11.30132865 79.97033728 -11.27964011 73.86503926 -11.26654124 67.75946665 C-11.2506343 60.80405835 -11.21220334 53.84883037 -11.17194796 46.89352703 C-11.08969746 32.5957502 -11.03551279 18.29796552 -11 4 C-10.28972656 3.87882812 -9.57945312 3.75765625 -8.84765625 3.6328125 C-7.92855469 3.46523437 -7.00945312 3.29765625 -6.0625 3.125 C-5.14597656 2.96257812 -4.22945312 2.80015625 -3.28515625 2.6328125 C-2.53105469 2.42398438 -1.77695313 2.21515625 -1 2 C-0.67 1.34 -0.34 0.68 0 0 Z " fill="#FCFCFC" transform="translate(224,91)"/>
<path d="M0 0 C1.32 0.99 2.64 1.98 4 3 C6.68084404 3.6408587 9.23845677 3.7698714 12 4 C12.00146656 4.5904586 12.00293312 5.18091721 12.00444412 5.78926849 C12.04155149 20.17933727 12.1006181 34.56919323 12.18390274 48.9590683 C12.22365384 55.91802845 12.25606616 62.87687617 12.27099609 69.8359375 C12.28542863 76.55342784 12.32058453 83.27051941 12.36830902 89.98786926 C12.38313176 92.54902617 12.39104152 95.11023283 12.39188385 97.6714325 C12.39425241 101.2624516 12.42132596 104.85250667 12.45410156 108.44335938 C12.4490712 109.49928284 12.44404083 110.5552063 12.43885803 111.64312744 C12.53112362 118.18887472 13.5379679 122.40596156 17 128 C19.02386069 129.8810068 19.02386069 129.8810068 21.25 130.9375 C22.50614401 131.61370891 23.75823305 132.29773859 25 133 C25 133.33 25 133.66 25 134 C16.75 134 8.5 134 0 134 C0 89.78 0 45.56 0 0 Z " fill="#FDFDFD" transform="translate(0,91)"/>
<path d="M0 0 C4.9961892 2.83184813 7.89529949 7.06089848 9.6875 12.4375 C10.27394523 18.41924133 9.04067044 22.56109055 5.6875 27.4375 C2.92199255 30.2947207 -0.14300681 33.30363288 -4.26138306 33.55775452 C-5.056362 33.55553391 -5.85134094 33.55331329 -6.67041016 33.55102539 C-8.02158432 33.55091209 -8.02158432 33.55091209 -9.40005493 33.55079651 C-10.37405243 33.54563522 -11.34804993 33.54047394 -12.3515625 33.53515625 C-13.34755463 33.5337413 -14.34354675 33.53232635 -15.36972046 33.53086853 C-18.55901053 33.52525936 -21.74823106 33.5127053 -24.9375 33.5 C-27.09635315 33.49498618 -29.25520741 33.49042307 -31.4140625 33.48632812 C-36.7135655 33.47528695 -42.01302778 33.45853988 -47.3125 33.4375 C-45.28471187 21.93025366 -35.88014037 11.87148607 -26.73046875 5.08203125 C-18.20292601 -0.71779992 -10.06034932 -4.34123892 0 0 Z " fill="#FCFCFC" transform="translate(168.3125,13.5625)"/>
<path d="M0 0 C5.7037296 3.20891285 10.32682263 7.45938112 14.9375 12.0625 C15.66195312 12.77535156 16.38640625 13.48820312 17.1328125 14.22265625 C21.00940266 18.28349499 23.71969845 22.29525696 26.171875 27.35546875 C26.69491211 28.42692139 27.21794922 29.49837402 27.75683594 30.60229492 C28.14645508 31.4141626 28.53607422 32.22603027 28.9375 33.0625 C22.49639398 33.16412708 16.0554956 33.23406052 9.61376953 33.28222656 C7.42358676 33.30231107 5.23345741 33.32958417 3.04345703 33.36425781 C-0.10918376 33.41291409 -3.26111404 33.43550078 -6.4140625 33.453125 C-7.38928864 33.47377014 -8.36451477 33.49441528 -9.36929321 33.51568604 C-15.13554802 33.51757862 -18.51423806 32.97280293 -23.0625 29.0625 C-27.51304378 24.24107757 -29.6221214 19.86444446 -29.4453125 13.18359375 C-28.50683661 7.98367121 -25.21215289 4.13003482 -21.4375 0.625 C-15.05018154 -3.5771832 -6.77577028 -3.11985625 0 0 Z " fill="#FCFCFC" transform="translate(76.0625,13.9375)"/>
<path d="M0 0 C27.72 0 55.44 0 84 0 C84 0.33 84 0.66 84 1 C83.39414063 1.14695313 82.78828125 1.29390625 82.1640625 1.4453125 C64.22158495 6.24837572 51.67356193 19.68352695 42 35 C38.96138947 32.12308937 36.57191686 29.12086602 34.1875 25.6875 C25.1288128 13.12545311 14.67953354 5.9928821 0 1 C0 0.67 0 0.34 0 0 Z " fill="#FCFCFC" transform="translate(71,0)"/>
</svg>
