<?xml version="1.0" encoding="UTF-8"?>
<svg version="1.1" xmlns="http://www.w3.org/2000/svg" width="225" height="225">
<path d="M0 0 C74.25 0 148.5 0 225 0 C225 74.25 225 148.5 225 225 C150.75 225 76.5 225 0 225 C0 150.75 0 76.5 0 0 Z " fill="#070707" transform="translate(0,0)"/>
<path d="M0 0 C74.25 0 148.5 0 225 0 C225 74.25 225 148.5 225 225 C211.8 225 198.6 225 185 225 C186.32 224.01 187.64 223.02 189 222 C193.01186414 218.37021816 195.67748853 215.53201086 196.18377113 209.98741531 C196.26781059 207.47469996 196.28160389 204.96969187 196.2746582 202.45556641 C196.27976913 201.50047684 196.28488007 200.54538727 196.29014587 199.56135559 C196.30403155 196.40802725 196.30308575 193.25491776 196.30078125 190.1015625 C196.30466894 187.90587279 196.30900377 185.71018383 196.31376648 183.51449585 C196.32122664 178.91295941 196.32093901 174.3114997 196.31567383 169.70996094 C196.30988173 163.81980179 196.32680512 157.92995736 196.3500185 152.03985023 C196.36476738 147.50503713 196.36562591 142.9702996 196.36250877 138.43546677 C196.36302148 136.26419832 196.3682496 134.0929256 196.37832069 131.92168045 C196.39068891 128.88198801 196.38389064 125.8429057 196.37231445 122.80322266 C196.37995819 121.9105217 196.38760193 121.01782074 196.39547729 120.09806824 C196.34007416 113.49960695 195.30400622 108.64626802 190.84375 103.5234375 C190.0703125 102.81445312 189.296875 102.10546875 188.5 101.375 C185.33982836 98.45710818 183.07040726 95.7824748 181 92 C181.72445312 91.52691406 182.44890625 91.05382812 183.1953125 90.56640625 C190.51678933 85.5585161 196.1375505 80.58734851 199 72 C199.65304571 64.77367453 199.82966015 57.82647954 195 52 C189.73159212 47.89303659 184.58119054 46.66536319 178 47 C174.67813829 47.91114536 174.67813829 47.91114536 172 49 C171.01 47.6078125 171.01 47.6078125 170 46.1875 C166.88656619 42.50719449 163.73352611 40.85615081 159 40 C152.58698733 39.7621139 148.02396528 40.81336226 143 45 C141.63113049 46.29682374 140.2830709 47.61823134 139 49 C133.52843082 44.58178103 131.38063339 41.25624253 130.37890625 34.296875 C129.48278542 28.86471986 126.31304385 26.0965443 122 23 C118.07754544 21.03877272 113.28630347 21.65212609 109 22 C105.216062 23.61018638 102.78850036 26.00494406 100 29 C99.34 28.67 98.68 28.34 98 28 C93.48070346 27.58406474 89.35212967 27.44151166 85.125 29.1875 C81.5671789 32.22211212 78.5624762 35.2189523 78 40 C77.86989405 43.51286059 77.85030913 46.46287394 78.796875 49.859375 C79 53 79 53 77.1484375 55.9921875 C76.25277203 56.98003667 75.32618864 57.9404933 74.375 58.875 C73.88298096 59.36822754 73.39096191 59.86145508 72.8840332 60.36962891 C69.01778608 63.86855533 66.31708636 64.61111445 61.1875 64.375 C60.10210937 64.271875 59.01671875 64.16875 57.8984375 64.0625 C54.71017648 63.99375044 53.6898368 64.33396938 51.3125 66.375 C50.549375 67.24125 49.78625 68.1075 49 69 C48.34 69.66 47.68 70.32 47 71 C45.7625 70.95875 44.525 70.9175 43.25 70.875 C38.79105816 70.76149966 36.42392975 72.06520307 33 75 C30.6760057 77.95781092 30.59482839 81.13280164 30.6640625 84.84375 C31.15438737 87.99095151 32.50898095 90.42481521 34.125 93.140625 C35 95 35 95 35 99 C33.28515625 101.2890625 33.28515625 101.2890625 31.0625 103.625 C26.73900964 108.18186062 26.73900964 108.18186062 25.85955811 114.14837646 C25.85099289 115.45210205 25.85099289 115.45210205 25.84225464 116.78216553 C25.84113678 117.73802551 25.84001892 118.6938855 25.83886719 119.67871094 C25.83390228 120.68373657 25.82893738 121.68876221 25.82382202 122.72424316 C25.80917475 126.06096066 25.80239358 129.39763059 25.796875 132.734375 C25.79112498 135.04884849 25.78536723 137.36332196 25.77960205 139.67779541 C25.76908429 144.53682681 25.76324692 149.39584163 25.75976562 154.25488281 C25.754284 160.48038028 25.73026615 166.70565869 25.70179367 172.93108749 C25.68316547 177.71462645 25.67796155 182.49811271 25.67642975 187.28168488 C25.67340233 189.57659348 25.66537084 191.87150114 25.65224457 194.16637421 C25.63518317 197.37898883 25.63706495 200.59106934 25.64355469 203.80371094 C25.6343399 204.751474 25.62512512 205.69923706 25.6156311 206.67572021 C25.64850806 211.8732526 26.08461045 215.50523151 29 220 C31.22359505 221.78078062 33.41509149 222.73193168 36 224 C36 224.33 36 224.66 36 225 C24.12 225 12.24 225 0 225 C0 150.75 0 76.5 0 0 Z " fill="#FCFCFC" transform="translate(0,0)"/>
<path d="M0 0 C3.16115776 1.36983503 3.9927092 1.9890638 6 5 C6.1729629 6.78633815 6.2668055 8.58088959 6.3125 10.375 C7.12765514 21.8148043 11.96494939 31.1405068 19 40 C19.64195312 40.87527344 20.28390625 41.75054687 20.9453125 42.65234375 C24.24401445 47.14235641 24.24401445 47.14235641 29.07421875 49.40625 C31.20363554 49.17911221 32.98689653 48.72404761 35 48 C41.76673866 45.6117393 41.76673866 45.6117393 46 47 C48.67578125 49.28515625 48.67578125 49.28515625 51.3125 52.0625 C52.19550781 52.98160156 53.07851562 53.90070313 53.98828125 54.84765625 C54.65214844 55.55792969 55.31601563 56.26820312 56 57 C51.91543491 62.10570636 47.38016332 66.50175458 42.53515625 70.87133789 C39.5238405 73.59076897 36.5950582 76.354338 33.75 79.25 C31.31437035 81.72563999 28.82756817 84.05644175 26.1875 86.3125 C22.79804395 89.22250451 19.63548547 92.32159942 16.5 95.5 C12.83153502 99.21846961 9.0685078 102.73668187 5.09375 106.125 C2.4601473 108.48345018 -0.01829178 110.98442914 -2.5 113.5 C-6.35112962 117.39397947 -10.26970958 121.11291314 -14.44140625 124.66015625 C-15.67503179 125.72064136 -16.84968251 126.84968251 -18 128 C-21.53013659 127.69236085 -23.21021872 126.13609254 -25.609375 123.6484375 C-26.28226562 122.96136719 -26.95515625 122.27429688 -27.6484375 121.56640625 C-28.68871094 120.48166016 -28.68871094 120.48166016 -29.75 119.375 C-34.41052642 114.5638482 -39.11412525 109.94293857 -44.19628906 105.57666016 C-46.57991376 103.49308567 -48.7920443 101.26763018 -51 99 C-53.89591958 96.06881809 -56.80242571 93.23596826 -59.9375 90.5625 C-63.80538808 87.25721383 -67.3592107 83.67005004 -70.92895508 80.05151367 C-74.16571309 76.78779671 -77.5178085 73.74310516 -81.015625 70.765625 C-84.19869474 67.93344484 -87.14721518 64.87307151 -90.1171875 61.8203125 C-91.87753339 59.93616102 -91.87753339 59.93616102 -94 59 C-93.61094382 56.27660672 -92.93262433 54.91096786 -91.25 52.6875 C-89 51 -89 51 -86.69921875 51.296875 C-83.04787657 52.24802057 -79.43289858 53.30373285 -75.81640625 54.37890625 C-72.67820133 55.07096531 -70.19879552 55.3993069 -67 55 C-60.76866139 49.32283182 -56.72079847 39.80288388 -55.69140625 31.515625 C-55.56000258 26.90876696 -56.44463323 23.36124841 -58 19 C-56.57282151 17.32448647 -55.13291518 15.65980691 -53.6875 14 C-52.48673828 12.6078125 -52.48673828 12.6078125 -51.26171875 11.1875 C-49 9 -49 9 -46 9 C-43.94140625 10.35546875 -43.94140625 10.35546875 -41.5625 12.1875 C-34.38192525 17.3554173 -25.08996552 22.61626885 -16 22 C-8.64144719 17.59465796 -3.72766135 7.4553227 0 0 Z " fill="#FAFAFA" transform="translate(130,50)"/>
<path d="M0 0 C28.38 0 56.76 0 86 0 C86 74.25 86 148.5 86 225 C72.8 225 59.6 225 46 225 C47.32 224.01 48.64 223.02 50 222 C54.01186414 218.37021816 56.67748853 215.53201086 57.18377113 209.98741531 C57.26781059 207.47469996 57.28160389 204.96969187 57.2746582 202.45556641 C57.2823246 201.02293205 57.2823246 201.02293205 57.29014587 199.56135559 C57.30403155 196.40802725 57.30308575 193.25491776 57.30078125 190.1015625 C57.30466894 187.90587279 57.30900377 185.71018383 57.31376648 183.51449585 C57.32122664 178.91295941 57.32093901 174.3114997 57.31567383 169.70996094 C57.30988173 163.81980179 57.32680512 157.92995736 57.3500185 152.03985023 C57.36476738 147.50503713 57.36562591 142.9702996 57.36250877 138.43546677 C57.36302148 136.26419832 57.3682496 134.0929256 57.37832069 131.92168045 C57.39068891 128.88198801 57.38389064 125.8429057 57.37231445 122.80322266 C57.37995819 121.9105217 57.38760193 121.01782074 57.39547729 120.09806824 C57.34007416 113.49960695 56.30400622 108.64626802 51.84375 103.5234375 C51.0703125 102.81445312 50.296875 102.10546875 49.5 101.375 C46.33982836 98.45710818 44.07040726 95.7824748 42 92 C42.72445312 91.52691406 43.44890625 91.05382812 44.1953125 90.56640625 C51.51678933 85.5585161 57.1375505 80.58734851 60 72 C60.65304571 64.77367453 60.82966015 57.82647954 56 52 C50.73159212 47.89303659 45.58119054 46.66536319 39 47 C35.67813829 47.91114536 35.67813829 47.91114536 33 49 C32.34 48.071875 31.68 47.14375 31 46.1875 C27.88656619 42.50719449 24.73352611 40.85615081 20 40 C13.58698733 39.7621139 9.02396528 40.81336226 4 45 C2.63113049 46.29682374 1.2830709 47.61823134 0 49 C-6.25853804 43.9463142 -8.02491479 39.86656585 -9 32 C-9.31351803 30.66186871 -9.64018616 29.32643239 -10 28 C-7.06347329 29.24237669 -5.6015796 30.40768599 -3.3125 32.75 C-1.4210953 34.34276185 -0.45230238 34.97221943 2.03515625 35.125 C9.202061 33.91155581 16.10719361 29.79262534 20.51953125 24.0078125 C22.88766625 19.70667684 23.73035562 15.92990044 23 11 C20.7412063 6.75971381 20.7412063 6.75971381 17 4 C15.24951339 4.00572054 13.4990277 4.05331854 11.75 4.125 C7.05952335 4.1866357 4.02235899 3.60909773 0 1 C0 0.67 0 0.34 0 0 Z " fill="#FDFDFD" transform="translate(139,0)"/>
<path d="M0 0 C6.40423829 4.50479113 11.68458716 9.56964988 16.97460938 15.31640625 C17.84375977 16.22326172 17.84375977 16.22326172 18.73046875 17.1484375 C19.23989014 17.69677246 19.74931152 18.24510742 20.27416992 18.81005859 C22.69231008 20.4773404 24.11956083 20.43851956 27 20 C29.15226442 18.6231732 29.15226442 18.6231732 31.06640625 16.640625 C32.1656543 15.58488281 32.1656543 15.58488281 33.28710938 14.5078125 C34.03798828 13.76273438 34.78886719 13.01765625 35.5625 12.25 C36.31724609 11.52039063 37.07199219 10.79078125 37.84960938 10.0390625 C41.26729392 6.72676911 44.63722209 3.36792621 48 0 C51.33224227 1.11074742 52.03032355 1.94056839 54.20898438 4.58007812 C57.82940538 8.84444566 61.67777662 12.79001659 65.65625 16.71875 C66.36221313 17.42092651 67.06817627 18.12310303 67.79553223 18.84655762 C70.02791358 21.06684603 72.26352111 23.28383955 74.5 25.5 C77.45090378 28.42409479 80.39833203 31.35163057 83.34375 34.28125 C84.00749634 34.936698 84.67124268 35.592146 85.35510254 36.26745605 C97.4249098 48.27472941 97.4249098 48.27472941 99 53 C49.83 53 0.66 53 -50 53 C-48.04300711 49.08601421 -45.87016757 46.62615961 -42.80078125 43.640625 C-42.28750778 43.1325531 -41.77423431 42.6244812 -41.2454071 42.10101318 C-39.60580301 40.47916351 -37.95968847 38.8641434 -36.3125 37.25 C-34.15931965 35.13367272 -32.00939207 33.01412123 -29.86328125 30.890625 C-29.08219246 30.11785217 -29.08219246 30.11785217 -28.2853241 29.32946777 C-24.92419889 25.9813591 -21.76231969 22.52641919 -18.68774414 18.91699219 C-15.32958151 15.10268682 -11.67449948 11.57176298 -8.0625 8 C-7.28326172 7.22527344 -6.50402344 6.45054687 -5.70117188 5.65234375 C-3.8030758 3.76589243 -1.90266851 1.88183755 0 0 Z " fill="#FDFDFD" transform="translate(86,165)"/>
<path d="M0 0 C3.76294269 1.72156329 6.26271485 3.98964628 8.6875 7.3125 C9.120625 7.869375 9.55375 8.42625 10 9 C13.93149711 9.45300041 13.93149711 9.45300041 15.8515625 7.28515625 C16.43679687 6.55167969 17.02203125 5.81820312 17.625 5.0625 C20.84319527 1.07840237 20.84319527 1.07840237 23 0 C28.14906185 -0.51322348 32.60554346 -0.61975846 37.375 1.5 C42.38089916 6.26752301 45.28177315 10.35504683 45.5 17.4375 C44.96961052 27.29730448 41.47126464 33.67725317 35 41 C34.42507812 41.66902344 33.85015625 42.33804688 33.2578125 43.02734375 C29.21556287 47.40789324 24.69698587 50.78707798 19.75 54.0625 C19.14728271 54.46919922 18.54456543 54.87589844 17.92358398 55.29492188 C13.64106611 58.02140852 13.64106611 58.02140852 10.89453125 57.9296875 C-2.86785299 51.17618761 -15.57929895 40.57447067 -21.15625 25.97265625 C-22.95462057 19.6367303 -22.91140753 14.05136454 -19.875 8.125 C-14.93235755 0.36779727 -8.9079349 -1.51266819 0 0 Z " fill="#FCFCFC" transform="translate(99,92)"/>
<path d="M0 0 C8.99144842 6.74358632 8.99144842 6.74358632 11.78125 9.62109375 C12.39129883 10.24274414 13.00134766 10.86439453 13.62988281 11.50488281 C14.24702148 12.14264648 14.86416016 12.78041016 15.5 13.4375 C19.88291876 17.89795442 24.26389837 22.23128819 29.046875 26.265625 C32.63189346 29.44912139 35.93775676 32.92913099 39.30078125 36.34375 C42.2753816 39.27099782 45.38208056 41.95357159 48.63671875 44.5625 C50 46 50 46 50 49 C48.79429626 50.55973816 48.79429626 50.55973816 47.08178711 52.24291992 C46.44369614 52.87755661 45.80560516 53.5121933 45.1481781 54.1660614 C44.44830276 54.84731583 43.74842743 55.52857025 43.02734375 56.23046875 C42.31147598 56.93972 41.59560822 57.64897125 40.85804749 58.37971497 C38.55815336 60.65614796 36.24840546 62.92225036 33.9375 65.1875 C31.65325226 67.4365052 29.37120162 69.68767422 27.0919342 71.94172668 C25.67270611 73.34420062 24.25039408 74.74356334 22.82444763 76.13920593 C18.8693769 80.03581174 15.12264502 84.04305043 11.50901794 88.25898743 C9.47624617 90.60427512 7.32286742 92.80973766 5.125 95 C4.36445312 95.763125 3.60390625 96.52625 2.8203125 97.3125 C1 99 1 99 0 99 C0 66.33 0 33.66 0 0 Z " fill="#FCFCFC" transform="translate(31,113)"/>
<path d="M0 0 C0.33 0 0.66 0 1 0 C1 32.34 1 64.68 1 98 C-6.87702916 91.24826072 -6.87702916 91.24826072 -9.4375 88.69189453 C-10.015 88.11754669 -10.5925 87.54319885 -11.1875 86.95144653 C-11.785625 86.3512973 -12.38375 85.75114807 -13 85.1328125 C-13.639375 84.49439423 -14.27875 83.85597595 -14.9375 83.19821167 C-16.27987415 81.85651346 -17.62100465 80.5135699 -18.9609375 79.16943359 C-20.99107898 77.13394452 -23.02649289 75.10383877 -25.0625 73.07421875 C-26.37532063 71.76073706 -27.68783089 70.44694507 -29 69.1328125 C-29.598125 68.53671173 -30.19625 67.94061096 -30.8125 67.32644653 C-35.0700389 63.04566877 -39.07012705 58.58211407 -43 54 C-43.58193115 53.32341339 -44.1638623 52.64682678 -44.76342773 51.94973755 C-46.17818032 50.3020212 -47.58947971 48.65134083 -49 47 C-46.337658 44.30818725 -43.66933333 41.62237853 -41 38.9375 C-40.25621094 38.18533203 -39.51242188 37.43316406 -38.74609375 36.65820312 C-34.55582621 32.44971703 -30.27911602 28.42963464 -25.77734375 24.55688477 C-23.40447371 22.47834188 -21.19999956 20.25945901 -19 18 C-15.40287905 14.3587426 -11.71496801 10.92799499 -7.82421875 7.60546875 C-5.99043444 5.99158149 -4.27314575 4.30565209 -2.5625 2.5625 C-1.716875 1.716875 -0.87125 0.87125 0 0 Z " fill="#FDFDFD" transform="translate(189,113)"/>
<path d="M0 0 C4.09168557 2.95994275 5.97865707 6.42538178 8 11 C10.85013081 10.6041485 12.60124335 10.34375573 14.8125 8.4375 C17.48250071 6.6829281 19.7231903 6.4007817 22.8984375 6.5078125 C26.7669114 7.41381196 29.49035863 10.01025333 32 13 C33.48881384 17.46644152 33.94887264 21.60698948 32.19921875 26.01953125 C26.11198241 36.62512858 16.3200392 42.27392787 5 46 C1.3515625 46.9453125 1.3515625 46.9453125 -2 47 C-9.95054437 40.99837154 -17.03313034 28.05286897 -18.5703125 18.4296875 C-18.7302681 13.74832017 -18.75481086 9.45914943 -16.25 5.375 C-11.19023369 0.03413556 -7.31824336 -1.25930811 0 0 Z " fill="#FCFCFC" transform="translate(161,46)"/>
<path d="M0 0 C2.98055036 1.43528347 5.52099378 3.14983594 8.125 5.1875 C8.75148437 4.76597656 9.37796875 4.34445313 10.0234375 3.91015625 C10.84070313 3.36230469 11.65796875 2.81445312 12.5 2.25 C13.31210938 1.70472656 14.12421875 1.15945312 14.9609375 0.59765625 C20.0555693 -2.7221309 25.41507258 -2.53332369 31.31640625 -1.38671875 C36.8057538 0.36428644 40.77790818 3.51851875 44.125 8.1875 C48.48024409 16.8080569 49.25246428 23.96553905 46.5 33.125 C41.29649595 47.46155082 30.35431273 57.90704875 17.6875 65.9375 C17.01348145 66.36796631 16.33946289 66.79843262 15.64501953 67.24194336 C9.26517456 71.09520389 9.26517456 71.09520389 5.125 70.1875 C2.58017531 68.79439025 0.30337186 67.3990776 -2.0625 65.75 C-2.72378906 65.2969751 -3.38507813 64.8439502 -4.06640625 64.37719727 C-16.01385148 56.04275013 -27.72236261 45.65770341 -31.875 31.1875 C-33.08286886 21.9271721 -32.52203016 13.85026796 -26.875 6.1875 C-19.55526456 -1.91719366 -10.00749889 -4.28657284 0 0 Z M-20.875 9.1875 C-24.82958275 14.35159609 -26.67875464 19.12264734 -26.28515625 25.65234375 C-24.02521987 39.6209029 -13.72797354 49.31056804 -2.87890625 57.4296875 C2.36605717 61.6182781 2.36605717 61.6182781 8.6015625 63.15234375 C20.78034765 58.49574943 33.48871661 46.85386825 39.125 35.1875 C41.62086359 28.88841571 42.72453111 21.30646422 40.21484375 14.84375 C37.65784695 10.43683591 34.84759735 7.28643215 30.125 5.1875 C25.22238795 4.26262073 21.02460315 4.02293437 16.671875 6.69140625 C14.02153249 8.97470492 11.69989981 11.03770038 10.125 14.1875 C7.875 14 7.875 14 5.125 13.1875 C3.75017293 11.55489286 2.41852333 9.88524938 1.125 8.1875 C-2.91323625 4.63874693 -7.06249883 4.67147647 -12.22265625 4.8515625 C-16.15033277 5.34902963 -18.04031287 6.42030542 -20.875 9.1875 Z " fill="#060606" transform="translate(102.875,86.8125)"/>
<path d="M0 0 C2.91949792 1.83996264 5.43160787 3.86321574 7 7 C8.20452333 16.36173827 6.08282849 23.14973127 1 31 C-1.18670933 33.82831865 -3.48008654 36.46517581 -6 39 C-16.59266996 37.26349673 -26.32066951 32.67472796 -33 24 C-34.35569764 19.93290707 -34.52216065 16.25187957 -34 12 C-32.4375 9 -32.4375 9 -30 7 C-26.07617831 5.8585246 -24.03840104 5.45607564 -20.375 7.375 C-19.199375 8.179375 -19.199375 8.179375 -18 9 C-15.30745009 9.70670728 -15.30745009 9.70670728 -13 10 C-12.773125 9.0925 -12.54625 8.185 -12.3125 7.25 C-9.96761664 1.44362215 -6.27531227 -1.15260838 0 0 Z " fill="#FBFBFB" transform="translate(118,27)"/>
<path d="M0 0 C2.72329697 0.97260606 4.27858344 0.94871465 7.125 0.8125 C10.55406587 0.73262159 11.48651776 0.85499994 14.5625 2.6875 C17.568182 5.96642582 18.48618204 7.73441098 19 12.1875 C18.30833144 19.10418564 15.74289145 23.3462894 10.375 27.75 C6.16438004 30.7813689 1.03896428 34.4072509 -4.390625 33.66015625 C-10.94306229 31.27393401 -15.41123604 24.98749751 -18.375 18.9375 C-20.04614288 13.48765826 -20.25684382 8.73510471 -17.75 3.625 C-12.50260713 -2.3128393 -7.24712778 -3.24213611 0 0 Z " fill="#070707" transform="translate(144.375,2.0625)"/>
<path d="M0 0 C4.06914948 0.75093137 5.70687545 2.41037549 8.4765625 5.45703125 C11.03149889 9.78280286 11.0887987 13.54420905 10.4765625 18.45703125 C9.4499537 22.27770935 8.06780844 25.83904048 6.4765625 29.45703125 C6.09564453 30.4625 6.09564453 30.4625 5.70703125 31.48828125 C4.9140625 33.14453125 4.9140625 33.14453125 2.4765625 35.45703125 C-4.26928667 36.76196601 -11.4488727 35.63262341 -17.5234375 32.45703125 C-24.97358631 27.10658482 -24.97358631 27.10658482 -26.5234375 22.45703125 C-27.0934375 13.62203125 -27.0934375 13.62203125 -23.5234375 9.45703125 C-20.52661039 7.65893499 -17.74305069 6.52291521 -14.3984375 5.51953125 C-11.41782521 4.69232001 -11.41782521 4.69232001 -9.7734375 2.33203125 C-6.59722964 -0.31480863 -4.04198061 -0.16096383 0 0 Z " fill="#050505" transform="translate(64.5234375,20.54296875)"/>
<path d="M0 0 C2.62025404 2.13757567 3.74727004 3.81042625 4.453125 7.1328125 C4.99001629 14.72250298 1.88309868 20.6421804 -2 27 C-2.66 27.66 -3.32 28.32 -4 29 C-12.34056538 28.70734858 -19.86559415 25.75100549 -26 20 C-27.60185044 16.79629912 -27.48679139 13.4761019 -27 10 C-25.375 7.4375 -25.375 7.4375 -23 6 C-20.125 6.1875 -20.125 6.1875 -17 7 C-15 7.33333333 -13 7.66666667 -11 8 C-10.9175 7.071875 -10.835 6.14375 -10.75 5.1875 C-10 2 -10 2 -8.3125 0.0625 C-5.05924124 -1.43224051 -3.37486682 -1.12495561 0 0 Z " fill="#F8F8F8" transform="translate(64,70)"/>
<path d="M0 0 C5.45454545 0.45454545 5.45454545 0.45454545 8 3 C9.06738308 10.37239012 7.83813074 15.71942242 4 22 C3 23 3 23 1.1796875 23.01953125 C-5.50709822 22.41885389 -9.99857555 20.81383542 -15 16.125 C-16.4118822 13.12475032 -15.83736797 11.14012988 -15 8 C-14 7 -14 7 -11.71484375 6.90234375 C-10.34005859 6.91974609 -10.34005859 6.91974609 -8.9375 6.9375 C-8.01839844 6.94652344 -7.09929688 6.95554687 -6.15234375 6.96484375 C-5.44207031 6.97644531 -4.73179688 6.98804688 -4 7 C-3.71125 6.21625 -3.4225 5.4325 -3.125 4.625 C-2 2 -2 2 0 0 Z " fill="#F6F6F6" transform="translate(60,27)"/>
<path d="M0 0 C0.94875 0.04125 1.8975 0.0825 2.875 0.125 C3.535 1.775 4.195 3.425 4.875 5.125 C5.761875 4.815625 6.64875 4.50625 7.5625 4.1875 C13.35585106 2.32925532 13.35585106 2.32925532 15.875 2.125 C17.6875 3.125 17.6875 3.125 18.875 5.125 C19.375 8.5 19.375 8.5 18.875 12.125 C15.73779689 16.24257908 10.81362841 20.30860585 5.875 22.125 C2.61779992 21.08692287 0.82764791 19.22178615 -1.3125 16.625 C-2.07626953 15.71234375 -2.07626953 15.71234375 -2.85546875 14.78125 C-5.01247698 11.96718388 -5.28415204 10.11746927 -5.3125 6.625 C-5.32667969 5.8309375 -5.34085938 5.036875 -5.35546875 4.21875 C-4.94776311 0.51484788 -3.54063589 0.14162544 0 0 Z " fill="#F8F8F8" transform="translate(137.125,6.875)"/>
</svg>
